HIERARCHY
ROOT mixamorig:Hips
{
	OFFSET 0.000000 201.639420 0.000000
	CHANNELS 6 Xposition Yposition Zposition Xrotation Yrotation Zrotation
	JOINT mixamorig:Spine
	{
		OFFSET 0.006200 19.524994 -2.481800
		CHANNELS 3 Xrotation Yrotation Zrotation
		JOINT mixamorig:Spine1
		{
			OFFSET -0.000900 22.835007 -2.825400
			CHANNELS 3 Xrotation Yrotation Zrotation
			JOINT mixamorig:Spine2
			{
				OFFSET -0.020600 26.552490 -3.193300
				CHANNELS 3 Xrotation Yrotation Zrotation
				JOINT mixamorig:Neck
				{
					OFFSET -0.060000 30.701813 1.352200
					CHANNELS 3 Xrotation Yrotation Zrotation
					JOINT mixamorig:Head
					{
						OFFSET -0.087200 22.547607 3.670900
						CHANNELS 3 Xrotation Yrotation Zrotation
						JOINT mixamorig:HeadTop_End
						{
							OFFSET -0.830600 40.355194 7.893500
							CHANNELS 3 Xrotation Yrotation Zrotation
							End Site
							{
								OFFSET 0.000000 30.592346 0.000000
							}
						}
						JOINT mixamorig:RightEye
						{
							OFFSET -6.302100 18.118591 16.197100
							CHANNELS 3 Xrotation Yrotation Zrotation
							End Site
							{
								OFFSET 0.000000 30.592346 0.000000
							}
						}
						JOINT mixamorig:LeftEye
						{
							OFFSET 6.741500 18.382690 16.401899
							CHANNELS 3 Xrotation Yrotation Zrotation
							End Site
							{
								OFFSET 0.000000 30.592346 0.000000
							}
						}
					}
				}
				JOINT mixamorig:LeftShoulder
				{
					OFFSET 11.924900 18.230499 1.425400
					CHANNELS 3 Xrotation Yrotation Zrotation
					JOINT mixamorig:LeftArm
					{
						OFFSET 25.435989 -0.697632 -5.229300
						CHANNELS 3 Xrotation Yrotation Zrotation
						JOINT mixamorig:LeftForeArm
						{
							OFFSET 54.684776 0.000000 0.000000
							CHANNELS 3 Xrotation Yrotation Zrotation
							JOINT mixamorig:LeftHand
							{
								OFFSET 55.098175 0.000000 0.000000
								CHANNELS 3 Xrotation Yrotation Zrotation
								JOINT mixamorig:LeftHandMiddle1
								{
									OFFSET 23.369751 0.000000 0.000000
									CHANNELS 3 Xrotation Yrotation Zrotation
									JOINT mixamorig:LeftHandMiddle2
									{
										OFFSET 6.378677 0.000000 0.000000
										CHANNELS 3 Xrotation Yrotation Zrotation
										JOINT mixamorig:LeftHandMiddle3
										{
											OFFSET 6.148331 0.000000 0.000000
											CHANNELS 3 Xrotation Yrotation Zrotation
											JOINT mixamorig:LeftHandMiddle4
											{
												OFFSET 6.582504 0.000000 0.000000
												CHANNELS 3 Xrotation Yrotation Zrotation
												End Site
												{
													OFFSET -1.168900 6.395691 1.028606
												}
											}
										}
									}
								}
								JOINT mixamorig:LeftHandThumb1
								{
									OFFSET 7.235672 -3.848206 5.434273
									CHANNELS 3 Xrotation Yrotation Zrotation
									JOINT mixamorig:LeftHandThumb2
									{
										OFFSET 6.568451 -3.792297 3.792300
										CHANNELS 3 Xrotation Yrotation Zrotation
										JOINT mixamorig:LeftHandThumb3
										{
											OFFSET 6.063080 -3.500519 3.500518
											CHANNELS 3 Xrotation Yrotation Zrotation
											JOINT mixamorig:LeftHandThumb4
											{
												OFFSET 4.793182 -2.767334 2.767349
												CHANNELS 3 Xrotation Yrotation Zrotation
												End Site
												{
													OFFSET 0.101639 6.054260 1.275483
												}
											}
										}
									}
								}
								JOINT mixamorig:LeftHandIndex1
								{
									OFFSET 23.101074 -0.309540 4.992809
									CHANNELS 3 Xrotation Yrotation Zrotation
									JOINT mixamorig:LeftHandIndex2
									{
										OFFSET 6.226883 0.000000 0.000000
										CHANNELS 3 Xrotation Yrotation Zrotation
										JOINT mixamorig:LeftHandIndex3
										{
											OFFSET 6.094330 0.000000 0.000000
											CHANNELS 3 Xrotation Yrotation Zrotation
											JOINT mixamorig:LeftHandIndex4
											{
												OFFSET 5.482605 0.000000 0.000000
												CHANNELS 3 Xrotation Yrotation Zrotation
												End Site
												{
													OFFSET -1.427902 5.233032 0.797164
												}
											}
										}
									}
								}
								JOINT mixamorig:LeftHandRing1
								{
									OFFSET 22.299240 0.021149 -3.964172
									CHANNELS 3 Xrotation Yrotation Zrotation
									JOINT mixamorig:LeftHandRing2
									{
										OFFSET 6.321869 0.000000 0.000000
										CHANNELS 3 Xrotation Yrotation Zrotation
										JOINT mixamorig:LeftHandRing3
										{
											OFFSET 5.899796 0.000000 0.000000
											CHANNELS 3 Xrotation Yrotation Zrotation
											JOINT mixamorig:LeftHandRing4
											{
												OFFSET 6.517899 0.000000 0.000000
												CHANNELS 3 Xrotation Yrotation Zrotation
												End Site
												{
													OFFSET -1.637299 6.232208 0.980890
												}
											}
										}
									}
								}
								JOINT mixamorig:LeftHandPinky1
								{
									OFFSET 20.463791 -0.302338 -8.562233
									CHANNELS 3 Xrotation Yrotation Zrotation
									JOINT mixamorig:LeftHandPinky2
									{
										OFFSET 6.908646 0.000000 0.000000
										CHANNELS 3 Xrotation Yrotation Zrotation
										JOINT mixamorig:LeftHandPinky3
										{
											OFFSET 4.622849 0.000000 0.000000
											CHANNELS 3 Xrotation Yrotation Zrotation
											JOINT mixamorig:LeftHandPinky4
											{
												OFFSET 5.216080 0.000000 0.000000
												CHANNELS 3 Xrotation Yrotation Zrotation
												End Site
												{
													OFFSET -0.606308 5.116241 0.814926
												}
											}
										}
									}
								}
							}
						}
					}
				}
				JOINT mixamorig:RightShoulder
				{
					OFFSET -12.001300 18.284088 1.348900
					CHANNELS 3 Xrotation Yrotation Zrotation
					JOINT mixamorig:RightArm
					{
						OFFSET -25.308500 -0.751312 -5.164599
						CHANNELS 3 Xrotation Yrotation Zrotation
						JOINT mixamorig:RightForeArm
						{
							OFFSET -54.684429 0.000000 0.000000
							CHANNELS 3 Xrotation Yrotation Zrotation
							JOINT mixamorig:RightHand
							{
								OFFSET -55.150291 0.000000 0.000000
								CHANNELS 3 Xrotation Yrotation Zrotation
								JOINT mixamorig:RightHandMiddle1
								{
									OFFSET -23.317566 0.000000 0.000000
									CHANNELS 3 Xrotation Yrotation Zrotation
									JOINT mixamorig:RightHandMiddle2
									{
										OFFSET -6.378403 0.000000 0.000000
										CHANNELS 3 Xrotation Yrotation Zrotation
										JOINT mixamorig:RightHandMiddle3
										{
											OFFSET -6.148193 0.000000 0.000000
											CHANNELS 3 Xrotation Yrotation Zrotation
											JOINT mixamorig:RightHandMiddle4
											{
												OFFSET -6.583389 0.000000 0.000000
												CHANNELS 3 Xrotation Yrotation Zrotation
												End Site
												{
													OFFSET 1.171692 6.395905 1.029786
												}
											}
										}
									}
								}
								JOINT mixamorig:RightHandThumb1
								{
									OFFSET -7.190521 -3.860474 5.435846
									CHANNELS 3 Xrotation Yrotation Zrotation
									JOINT mixamorig:RightHandThumb2
									{
										OFFSET -6.567429 -3.791718 3.791708
										CHANNELS 3 Xrotation Yrotation Zrotation
										JOINT mixamorig:RightHandThumb3
										{
											OFFSET -6.062469 -3.500153 3.500166
											CHANNELS 3 Xrotation Yrotation Zrotation
											JOINT mixamorig:RightHandThumb4
											{
												OFFSET -4.792618 -2.767029 2.767022
												CHANNELS 3 Xrotation Yrotation Zrotation
												End Site
												{
													OFFSET -0.100327 6.053253 1.276754
												}
											}
										}
									}
								}
								JOINT mixamorig:RightHandIndex1
								{
									OFFSET -23.048981 -0.310791 4.992554
									CHANNELS 3 Xrotation Yrotation Zrotation
									JOINT mixamorig:RightHandIndex2
									{
										OFFSET -6.227539 0.000000 0.000000
										CHANNELS 3 Xrotation Yrotation Zrotation
										JOINT mixamorig:RightHandIndex3
										{
											OFFSET -6.095047 0.000000 0.000000
											CHANNELS 3 Xrotation Yrotation Zrotation
											JOINT mixamorig:RightHandIndex4
											{
												OFFSET -5.484772 0.000000 0.000000
												CHANNELS 3 Xrotation Yrotation Zrotation
												End Site
												{
													OFFSET 1.420593 5.237305 0.797056
												}
											}
										}
									}
								}
								JOINT mixamorig:RightHandRing1
								{
									OFFSET -22.246323 0.020569 -3.963762
									CHANNELS 3 Xrotation Yrotation Zrotation
									JOINT mixamorig:RightHandRing2
									{
										OFFSET -6.322128 0.000000 0.000000
										CHANNELS 3 Xrotation Yrotation Zrotation
										JOINT mixamorig:RightHandRing3
										{
											OFFSET -5.900024 0.000000 0.000000
											CHANNELS 3 Xrotation Yrotation Zrotation
											JOINT mixamorig:RightHandRing4
											{
												OFFSET -6.518356 0.000000 0.000000
												CHANNELS 3 Xrotation Yrotation Zrotation
												End Site
												{
													OFFSET 1.636398 6.232697 0.982186
												}
											}
										}
									}
								}
								JOINT mixamorig:RightHandPinky1
								{
									OFFSET -20.411011 -0.303314 -8.561701
									CHANNELS 3 Xrotation Yrotation Zrotation
									JOINT mixamorig:RightHandPinky2
									{
										OFFSET -6.907349 0.000000 0.000000
										CHANNELS 3 Xrotation Yrotation Zrotation
										JOINT mixamorig:RightHandPinky3
										{
											OFFSET -4.623840 0.000000 0.000000
											CHANNELS 3 Xrotation Yrotation Zrotation
											JOINT mixamorig:RightHandPinky4
											{
												OFFSET -5.218353 0.000000 0.000000
												CHANNELS 3 Xrotation Yrotation Zrotation
												End Site
												{
													OFFSET 0.602097 5.118835 0.816273
												}
											}
										}
									}
								}
							}
						}
					}
				}
			}
		}
	}
	JOINT mixamorig:LeftUpLeg
	{
		OFFSET 18.168400 -13.561905 -0.039000
		CHANNELS 3 Xrotation Yrotation Zrotation
		JOINT mixamorig:LeftLeg
		{
			OFFSET 0.577358 -80.825211 -3.695000
			CHANNELS 3 Xrotation Yrotation Zrotation
			JOINT mixamorig:LeftFoot
			{
				OFFSET -0.577356 -83.370262 -6.520700
				CHANNELS 3 Xrotation Yrotation Zrotation
				JOINT mixamorig:LeftToeBase
				{
					OFFSET 0.750401 -20.798306 25.135401
					CHANNELS 3 Xrotation Yrotation Zrotation
					JOINT mixamorig:LeftToe_End
					{
						OFFSET -0.000500 0.001200 19.917799
						CHANNELS 3 Xrotation Yrotation Zrotation
						End Site
						{
							OFFSET 0.000000 19.917805 0.000000
						}
					}
				}
			}
		}
	}
	JOINT mixamorig:RightUpLeg
	{
		OFFSET -18.162500 -13.585098 -0.041000
		CHANNELS 3 Xrotation Yrotation Zrotation
		JOINT mixamorig:RightLeg
		{
			OFFSET -0.595024 -80.945297 -3.631900
			CHANNELS 3 Xrotation Yrotation Zrotation
			JOINT mixamorig:RightFoot
			{
				OFFSET 0.595024 -83.218193 -6.561200
				CHANNELS 3 Xrotation Yrotation Zrotation
				JOINT mixamorig:RightToeBase
				{
					OFFSET -0.753601 -20.807106 25.115000
					CHANNELS 3 Xrotation Yrotation Zrotation
					JOINT mixamorig:RightToe_End
					{
						OFFSET 0.000299 0.001700 19.918200
						CHANNELS 3 Xrotation Yrotation Zrotation
						End Site
						{
							OFFSET 0.000000 19.918203 0.000000
						}
					}
				}
			}
		}
	}
}
MOTION
Frames: 4
Frame Time: 0.033333
-73.903275 196.648697 0.181444 1.737308 0.491593 -0.475543 5.072449 0.582768 6.775549 1.779111 0.083456 -2.801420 1.783176 0.036115 -2.799112 8.098675 1.638330 -0.276677 8.523819 11.552835 -11.818629 0.000001 -0.000000 0.000000 0.000001 -0.000000 0.000000 0.000001 -0.000000 0.000000 -0.251452 5.887868 0.609005 4.373388 -41.953453 -63.135496 0.000016 -9.911293 0.000013 26.154847 3.452169 -2.779113 0.074244 1.010551 -8.404745 0.071015 0.988411 -8.219311 0.075311 1.017678 -8.464426 0.000002 -0.000002 0.000000 -2.107830 4.876212 12.292420 4.685181 17.127442 1.425237 -0.579465 1.574996 2.538715 0.000002 0.000000 -0.000000 0.022119 0.552658 -4.584533 0.011598 0.400539 -3.320817 0.010534 0.381567 -3.163458 0.000000 0.000000 -0.000002 0.213976 1.706539 -14.292899 0.211636 1.697329 -14.214218 0.236775 1.793564 -15.039032 0.000001 -0.000000 0.000002 2.169054 6.468990 -23.000992 0.379779 -1.803839 -19.516789 0.441800 2.431045 -20.597165 -0.000003 0.000000 -0.000001 1.009720 10.362661 2.744471 -22.921253 -36.531089 53.338071 0.000005 14.775991 -0.000001 27.413401 14.800424 -38.785011 0.183084 -1.588224 13.150913 0.443136 -2.446923 20.527106 0.400766 -2.330722 19.510504 -0.000001 -0.000001 -0.000002 -2.032678 -12.088980 -7.927924 5.749301 -21.267915 -1.054434 -1.273754 0.137313 -2.094872 -0.000001 -0.000001 0.000000 0.123172 -1.305579 10.778372 0.279279 -1.954543 16.262006 0.149884 -1.438766 11.893767 0.000001 0.000001 -0.000003 0.366380 -2.231388 18.646604 0.795394 -3.234320 27.625894 0.836705 -3.311908 28.349291 -0.000000 0.000001 0.000000 0.838228 -3.314729 28.375686 1.309347 -4.066245 35.684989 1.326179 -4.089505 35.921587 0.000000 -0.000000 -0.000002 -15.195457 22.625113 20.930382 18.439364 9.695763 -6.306259 -3.470608 6.782391 -9.233804 0.000000 0.000003 0.000003 -0.000000 0.000001 0.000000 -15.196372 -9.753143 -13.895660 19.738811 -9.537000 -0.044100 1.078465 -21.772474 9.178198 -0.012997 0.000004 0.005126 -0.000000 0.000000 0.000000 
-73.276436 196.161926 0.337003 2.103994 8.711165 -1.869928 4.685293 0.918606 7.071239 2.302675 0.128238 -2.556057 2.308847 0.077629 -2.551511 6.946680 1.186668 -1.257591 6.732003 7.045871 -8.468769 -0.000000 -0.000001 0.000000 -0.000000 -0.000001 0.000000 -0.000000 -0.000001 0.000000 -0.077458 4.063725 0.456178 3.426612 -41.596398 -63.302275 -0.000000 -9.645805 0.000003 24.703148 3.134603 0.403782 0.074816 1.014371 -8.436836 0.088460 1.102412 -9.175391 0.091612 1.121780 -9.337904 0.000002 0.000000 -0.000000 -2.107835 4.876211 12.292420 4.685179 17.127437 1.425240 -0.579464 1.574990 2.538712 -0.000003 0.000003 0.000001 0.018024 0.498887 -4.137749 0.017489 0.491536 -4.076543 0.014532 0.448091 -3.715678 -0.000000 -0.000001 -0.000001 0.229937 1.767972 -14.819299 0.257363 1.868501 -15.683605 0.278404 1.941786 -16.316262 -0.000000 -0.000001 0.000002 2.299019 6.561467 -24.146418 0.468767 -1.566730 -21.612692 0.509272 2.603362 -22.133612 -0.000003 -0.000001 -0.000000 1.191560 13.254825 2.699959 -11.958287 -28.742877 66.965545 -0.000004 9.102452 0.000019 21.786015 13.521988 -37.497278 0.084793 -1.084807 8.938809 0.275773 -1.942499 16.158858 0.202163 -1.667707 13.822218 0.000001 0.000000 -0.000001 -2.032678 -12.088978 -7.927927 5.749299 -21.267915 -1.054436 -1.273756 0.137310 -2.094874 0.000000 -0.000002 0.000001 0.041816 -0.763001 6.273834 0.147201 -1.425990 11.786535 0.035791 -0.706086 5.804094 -0.000001 0.000003 0.000002 0.199837 -1.658267 13.742296 0.564245 -2.748437 23.198708 0.542727 -2.697735 22.745780 -0.000001 0.000001 0.000001 0.492354 -2.574410 21.650510 1.023862 -3.636891 31.436963 0.943062 -3.501549 30.139084 -0.000001 0.000001 0.000002 -20.387427 21.755783 23.785982 21.626498 9.332112 -7.299672 -2.505972 0.571806 -8.399633 -0.000001 0.000010 -0.000005 -0.000000 -0.000001 0.000000 -12.482781 -10.249217 -12.653215 19.560458 -9.406322 0.514928 -0.264473 -25.954978 9.700097 -0.013280 0.000024 0.007843 -0.000000 -0.000002 -0.000000 
-72.426392 196.125092 0.573995 2.143129 15.538325 -2.729486 5.197969 1.844729 6.804325 2.507894 0.253476 -2.398548 2.519188 0.200666 -2.390555 5.329236 0.322106 -1.359050 5.672905 1.346462 -5.093169 -0.000001 0.000000 -0.000000 -0.000001 0.000000 -0.000000 -0.000001 0.000000 -0.000000 0.140615 1.661550 0.333926 2.689028 -41.716289 -63.395883 0.000003 -9.593667 -0.000006 22.441114 2.368714 3.057723 0.061039 0.916628 -7.618690 0.085939 1.086709 -9.043379 0.091433 1.120686 -9.328802 0.000005 0.000002 -0.000000 -2.107835 4.876212 12.292419 4.685178 17.127435 1.425236 -0.579467 1.574996 2.538716 -0.000001 -0.000001 0.000000 0.008753 0.347657 -2.882192 0.015021 0.455682 -3.778691 0.012886 0.421874 -3.498040 -0.000000 0.000000 -0.000001 0.212812 1.701947 -14.253608 0.265408 1.896900 -15.928544 0.288749 1.976769 -16.618713 -0.000001 0.000001 -0.000001 2.247563 6.525325 -23.694942 0.502933 -1.482161 -22.367519 0.534704 2.664969 -22.687008 0.000003 0.000000 0.000004 1.484653 18.534729 2.979674 -6.743543 -13.356916 75.967912 -0.000002 6.083878 0.000005 13.023291 8.813890 -30.541252 0.051092 -0.843146 6.935942 0.178216 -1.567218 12.973829 0.093795 -1.140521 9.402056 -0.000003 0.000001 -0.000002 -2.032676 -12.088979 -7.927928 5.749299 -21.267915 -1.054442 -1.273754 0.137310 -2.094879 0.000001 -0.000001 -0.000001 0.023635 -0.573979 4.715385 0.081872 -1.066049 8.782995 0.003141 -0.209192 1.716790 0.000003 -0.000001 -0.000002 0.124069 -1.310288 10.817729 0.395365 -2.315451 19.377416 0.325830 -2.107497 17.575501 0.000002 -0.000000 0.000000 0.310007 -2.056895 17.139955 0.757670 -3.161292 26.949481 0.604917 -2.841330 24.032693 0.000003 -0.000001 -0.000000 -23.074633 20.449839 24.047399 22.293789 3.691726 -7.183327 -1.924094 0.519175 -7.405378 -0.000024 0.000003 -0.000004 -0.000000 -0.000002 0.000000 -9.046183 -9.971238 -10.954828 18.046576 -9.421098 0.357891 -2.675022 -23.834850 8.889384 -0.136059 -0.000024 -0.000000 -0.000000 -0.000002 -0.000001 
-71.588470 196.588135 0.897952 2.038823 20.802195 -2.693040 6.193472 3.174970 5.921051 2.259339 0.432853 -2.547052 2.278575 0.380474 -2.537267 3.965506 -0.698216 -0.806568 5.543190 -3.897000 -2.505656 -0.000002 0.000001 -0.000000 -0.000002 0.000001 -0.000000 -0.000002 0.000001 -0.000000 0.322327 -0.405967 0.301661 2.357040 -42.939456 -63.446980 0.000003 -9.351847 0.000031 20.189424 1.291077 4.237939 0.045671 0.793422 -6.589549 0.072508 0.998631 -8.304947 0.081240 1.056719 -8.791765 -0.000004 -0.000000 0.000001 -2.107831 4.876214 12.292423 4.685173 17.127435 1.425235 -0.579464 1.574994 2.538714 -0.000001 0.000004 0.000003 0.002729 0.194386 -1.610944 0.009102 0.354848 -2.941680 0.008789 0.348169 -2.886418 0.000003 -0.000000 -0.000002 0.183449 1.581906 -13.228774 0.246892 1.830804 -15.359166 0.275704 1.932551 -16.236278 0.000000 -0.000002 0.000001 2.104558 6.421584 -22.426542 0.489342 -1.515443 -22.070049 0.524616 2.640725 -22.468904 0.000000 0.000001 -0.000002 1.778325 24.753055 3.437589 -6.436946 3.350720 79.927536 -0.000011 6.578390 -0.000001 8.547415 6.123611 -27.098723 0.050474 -0.838100 6.894323 0.143338 -1.407356 11.630298 0.057110 -0.891079 7.332441 0.000003 -0.000001 0.000001 -2.032678 -12.088982 -7.927924 5.749301 -21.267911 -1.054437 -1.273759 0.137312 -2.094870 -0.000003 0.000001 0.000002 0.030238 -0.649072 5.333979 0.063671 -0.940768 7.743883 0.000102 -0.036880 0.302635 0.000001 -0.000001 -0.000001 0.108088 -1.223766 10.095546 0.315444 -2.074430 17.290643 0.223240 -1.751130 14.528936 -0.000002 0.000001 0.000000 0.256481 -1.874693 15.579936 0.600299 -2.830974 23.939209 0.418304 -2.379591 19.937256 0.000003 0.000001 0.000000 -23.092928 18.676674 21.567045 21.266569 1.370003 -5.543456 -1.133877 0.469608 -7.259750 -0.000022 0.000010 0.000003 -0.000000 0.000001 0.000000 -4.966390 -8.767513 -9.176954 14.374299 -9.675859 -1.073319 -5.341597 -15.274296 7.983715 -0.550665 0.000004 -0.000000 -0.000000 0.000000 -0.000000 
